<?xml version="1.0" encoding="UTF-8" standalone="no"?>
<svg
   xmlns:dc="http://purl.org/dc/elements/1.1/"
   xmlns:cc="http://creativecommons.org/ns#"
   xmlns:rdf="http://www.w3.org/1999/02/22-rdf-syntax-ns#"
   xmlns:svg="http://www.w3.org/2000/svg"
   xmlns="http://www.w3.org/2000/svg"
   viewBox="0 0 41.973331 41.973331"
   height="41.973331"
   width="41.973331"
   xml:space="preserve"
   id="svg2"
   version="1.1"><metadata
     id="metadata8"><rdf:RDF><cc:Work
         rdf:about=""><dc:format>image/svg+xml</dc:format><dc:type
           rdf:resource="http://purl.org/dc/dcmitype/StillImage" /></cc:Work></rdf:RDF></metadata><defs
     id="defs6" /><g
     transform="matrix(1.3333333,0,0,-1.3333333,0,41.973333)"
     id="g10"><g
       transform="scale(0.1)"
       id="g12"><path
         id="path14"
         style="fill:#1c4f9c;fill-opacity:1;fill-rule:nonzero;stroke:none"
         d="M 0,0 H 314.465 V 314.797 H 0 V 0" /><path
         id="path16"
         style="fill:#ffffff;fill-opacity:1;fill-rule:nonzero;stroke:none"
         d="M 213.035,92.793 C 191.465,77.0117 159.906,68.1445 157.133,67.4219 v 0.0195 c 2.398,1.1524 28.332,13.7695 39.859,25.0781 5.488,5.3907 9.938,13.3395 12.836,19.8825 -1.375,-1.191 -2.426,-3.398 -15.976,-10.703 -12.879,-6.8748 -34.52,-14.5701 -36.719,-15.3709 v 0.0391 c 1.894,1.0547 17.269,9.6094 26.644,20.1758 5.575,6.27 10.094,11.914 12.383,17.52 -10.972,-8.731 -36.648,-18.204 -39.027,-19.083 v 0.04 c 1.469,0.898 11.027,6.855 18.859,15.937 5.735,6.699 6.317,10.977 7.199,14.453 -12.043,-9.551 -24.398,-11.367 -26.058,-11.562 v 0.097 c 1.543,1.035 11.93,8.36 12.445,23.012 -9.476,-8.637 -17.629,-5.57 -21.457,-2.152 -3.801,3.304 -3.695,10.453 -3.695,10.453 v 100.226 h -12.727 v -9.328 h -16.937 v 9.328 h -12.699 v -9.328 H 85.1172 v 9.328 H 72.3633 V 140.625 c 0,0 0.2148,-32.734 30.1717,-57.4414 20.961,-17.2852 54.598,-33.6719 54.598,-33.6719 2.773,1.3672 34.508,17.0508 48.336,29.336 9.929,8.8476 14.582,14.5898 17.91,22.1483 -2.918,-2.7343 -6.441,-5.371 -10.344,-8.203" /><path
         id="path18"
         style="fill:#ffffff;fill-opacity:1;fill-rule:nonzero;stroke:none"
         d="m 196.469,164.996 v 80.926 h -11.641 v -96.356 c 0,0 0.36,-6.793 -1.637,-14.156 15.266,9.883 13.278,29.586 13.278,29.586" /><path
         id="path20"
         style="fill:#ffffff;fill-opacity:1;fill-rule:nonzero;stroke:none"
         d="m 211.277,155.512 v 99.953 H 199.664 V 141.309 c 0,0 0.371,-7.852 -3.437,-17.188 15,12.168 15.05,31.391 15.05,31.391" /><path
         id="path22"
         style="fill:#ffffff;fill-opacity:1;fill-rule:nonzero;stroke:none"
         d="m 226.098,149.148 v 96.774 h -11.61 V 134.766 c 0,0 -0.965,-15.274 -4.593,-22.286 16.398,10.508 16.203,36.668 16.203,36.668" /><path
         id="path24"
         style="fill:#ffffff;fill-opacity:1;fill-rule:nonzero;stroke:none"
         d="M 240.996,141.309 V 255.465 H 229.324 V 124.824 c 0,0 -0.633,-11.836 -5.89,-23.769 18.269,17.636 17.562,40.254 17.562,40.254" /><path
         id="path26"
         style="fill:#ffffff;fill-opacity:1;fill-rule:nonzero;stroke:none"
         d="m 181.648,172.094 v 83.371 h -11.636 v -98.418 c 0,0 0,-7.317 -0.399,-10.031 13.477,11.425 12.035,25.078 12.035,25.078" /></g></g></svg>