<?xml version="1.0" encoding="iso-8859-1"?>
<svg version="1.1" id="Layer_1" xmlns="http://www.w3.org/2000/svg" xmlns:xlink="http://www.w3.org/1999/xlink" x="0px" y="0px"
	 viewBox="0 0 512 512" style="enable-background:new 0 0 512 512;" xml:space="preserve">

<path style="fill:#458FDE;" d="M256,0C152.128,0,67.623,84.506,67.623,188.377c0,101.346,174.758,311.822,182.198,320.732
	c1.53,1.832,3.792,2.891,6.179,2.891c2.387,0,4.65-1.058,6.179-2.891c7.44-8.91,182.198-219.386,182.198-320.732
	C444.377,84.506,359.872,0,256,0z"/>
<path style="fill:#4F5AA8;" d="M113.241,188.377c0-96.152,72.414-175.699,165.568-186.993C271.33,0.478,263.72,0,256,0
	C152.128,0,67.623,84.506,67.623,188.377c0,101.346,174.758,311.822,182.198,320.732c1.53,1.832,3.792,2.891,6.179,2.891
	c2.387,0,4.65-1.058,6.179-2.891c1.266-1.515,7.371-8.863,16.63-20.506C233.617,431.772,113.241,272.491,113.241,188.377z"/>
<circle style="fill:#AFF078;" cx="256" cy="188.377" r="139.539"/>
<circle style="fill:#5AC779;" cx="256" cy="188.377" r="113.778"/>
</svg>
