<?xml version="1.0" encoding="utf-8"?>
<!-- Generator: Adobe Illustrator 23.0.3, SVG Export Plug-In . SVG Version: 6.00 Build 0)  -->
<svg version="1.1" id="Layer_1" xmlns="http://www.w3.org/2000/svg" xmlns:xlink="http://www.w3.org/1999/xlink" x="0px" y="0px"
	 viewBox="0 0 600 600" style="enable-background:new 0 0 600 600;" xml:space="preserve">
<style type="text/css">
	.st0{fill:#00529B;}
	.st1{enable-background:new    ;}
	.st2{fill:#FFFFFF;}
</style>
<rect class="st0" width="600" height="600"/>
<g class="st1">
	<path class="st2" d="M148,168.8c0,15.5-4.3,27.4-12.8,35.8c-8.5,8.4-20.5,12.6-36,12.6h-30v-92.8h32.1c14.9,0,26.4,3.8,34.5,11.4
		C143.9,143.5,148,154.5,148,168.8z M122,169.7c0-8.5-1.7-14.8-5-18.9c-3.4-4.1-8.5-6.2-15.3-6.2h-7.3v52h5.6
		c7.6,0,13.2-2.2,16.8-6.6S122,178.8,122,169.7z"/>
</g>
<g class="st1">
	<path class="st2" d="M207.9,217.2l-3.1-9h-1.5c-2.1,3.3-5,5.8-8.7,7.6c-3.7,1.8-8.1,2.6-13,2.6c-7.9,0-14.1-2.3-18.5-6.9
		c-4.4-4.6-6.6-11.1-6.6-19.5v-46.8h24.8v39.3c0,4.7,0.7,8.3,2,10.7s3.5,3.6,6.6,3.6c4.3,0,7.3-1.7,9.1-5c1.8-3.4,2.7-9,2.7-17
		v-31.5h24.8v71.9H207.9z"/>
</g>
<g class="st1">
	<path class="st2" d="M261.5,176.8c3-4.8,5.6-8.5,7.7-11.2l16.1-20.3H313l-24.9,30.6l26.5,41.3h-28.4l-15.7-25.8l-8.1,6.2v19.6
		h-24.9v-98.8h24.9v38.8c0,6.6-0.5,13.1-1.4,19.5H261.5z"/>
</g>
<g class="st1">
	<path class="st2" d="M348.3,218.5c-12,0-21.3-3.2-27.9-9.6c-6.6-6.4-9.9-15.4-9.9-27.2c0-12.1,3.1-21.5,9.2-28
		c6.1-6.5,14.9-9.7,26.3-9.7c10.8,0,19.2,2.8,25.1,8.5c5.9,5.7,8.9,13.8,8.9,24.4v11h-44.4c0.2,4,1.6,7.2,4.4,9.5
		c2.8,2.3,6.5,3.4,11.3,3.4c4.4,0,8.4-0.4,12-1.2c3.7-0.8,7.6-2.2,11.9-4.2v17.8c-3.9,2-7.9,3.4-12.1,4.1S354,218.5,348.3,218.5z
		 M346.8,160.9c-2.9,0-5.4,0.9-7.3,2.8c-2,1.8-3.1,4.7-3.5,8.7h21.3c-0.1-3.5-1.1-6.2-3-8.3C352.5,161.9,350,160.9,346.8,160.9z"/>
</g>
<g class="st1">
	<path class="st2" d="M109.7,342.2l-19-66.8h-0.6c0.9,11.4,1.3,20.2,1.3,26.5v40.3H69.2v-92.8h33.4l19.4,65.9h0.5l19-65.9h33.5v92.8
		h-23v-40.7c0-2.1,0-4.5,0.1-7c0.1-2.6,0.3-8.9,0.9-19h-0.6l-18.7,66.7H109.7z"/>
</g>
<g class="st1">
	<path class="st2" d="M221.9,343.5c-12,0-21.3-3.2-27.9-9.6c-6.6-6.4-9.9-15.4-9.9-27.2c0-12.1,3.1-21.5,9.2-28
		c6.1-6.5,14.9-9.7,26.3-9.7c10.8,0,19.2,2.8,25.1,8.5c5.9,5.7,8.9,13.8,8.9,24.4v11h-44.4c0.2,4,1.6,7.2,4.4,9.5
		c2.8,2.3,6.5,3.4,11.3,3.4c4.4,0,8.4-0.4,12-1.2c3.7-0.8,7.6-2.2,11.9-4.2v17.8c-3.9,2-7.9,3.4-12.1,4.1
		C232.6,343.1,227.7,343.5,221.9,343.5z M220.5,285.9c-2.9,0-5.4,0.9-7.3,2.8c-2,1.8-3.1,4.7-3.5,8.7H231c-0.1-3.5-1.1-6.2-3-8.3
		C226.2,286.9,223.6,285.9,220.5,285.9z"/>
</g>
<g class="st1">
	<path class="st2" d="M284.2,343.5c-5.1,0-9.6-1.5-13.4-4.4c-3.8-2.9-6.8-7.2-8.9-12.9c-2.1-5.7-3.1-12.3-3.1-19.9
		c0-11.7,2.3-20.8,7-27.4s11.1-9.9,19.4-9.9c4,0,7.5,0.8,10.6,2.4c3,1.6,5.8,4.3,8.3,8.1h0.5c-0.8-5.6-1.2-11.3-1.2-16.9v-19.2h25
		v98.8h-18.7l-5.3-9.1h-1C299,340,292.7,343.5,284.2,343.5z M294.4,323.9c4,0,6.8-1.2,8.4-3.7c1.6-2.5,2.5-6.3,2.6-11.6v-2
		c0-6.3-0.9-10.9-2.7-13.6s-4.7-4-8.6-4c-3.3,0-5.8,1.5-7.6,4.6c-1.8,3.1-2.7,7.4-2.7,13.1c0,5.6,0.9,9.8,2.7,12.8
		C288.4,322.4,291,323.9,294.4,323.9z"/>
</g>
<g class="st1">
	<path class="st2" d="M338.7,252.4c0-3.7,1-6.5,3.1-8.3c2.1-1.8,5.4-2.7,10-2.7c4.6,0,8,0.9,10.1,2.8c2.1,1.9,3.2,4.6,3.2,8.3
		c0,7.3-4.4,10.9-13.3,10.9C343,263.3,338.7,259.7,338.7,252.4z M364.1,342.2h-24.8v-71.9h24.8V342.2z"/>
</g>
<g class="st1">
	<path class="st2" d="M407.5,343.5c-11.8,0-20.7-3.2-26.8-9.5c-6.1-6.3-9.1-15.5-9.1-27.4c0-11.9,3.3-21.2,9.8-27.7
		c6.6-6.6,15.9-9.8,28-9.8c8.3,0,16.2,1.8,23.5,5.5l-7.3,18.3c-3-1.3-5.8-2.4-8.3-3.1c-2.5-0.8-5.2-1.2-7.9-1.2
		c-4,0-7.1,1.6-9.3,4.7c-2.2,3.1-3.3,7.6-3.3,13.3c0,11.5,4.3,17.3,12.8,17.3c7.3,0,14.3-2.1,20.9-6.3v19.7
		C424.2,341.4,416.5,343.5,407.5,343.5z"/>
</g>
<g class="st1">
	<path class="st2" d="M485.4,342.2l-4.8-9.5h-0.5c-3.3,4.1-6.8,7-10.2,8.5s-8,2.3-13.5,2.3c-6.8,0-12.1-2-16-6.1s-5.8-9.8-5.8-17.1
		c0-7.7,2.7-13.4,8-17.1c5.3-3.7,13.1-5.8,23.2-6.3l12-0.4v-1c0-5.9-2.9-8.9-8.8-8.9c-5.2,0-11.9,1.8-20,5.3l-7.2-16.4
		c8.4-4.3,19-6.5,31.7-6.5c9.2,0,16.4,2.3,21.4,6.9c5.1,4.6,7.6,11,7.6,19.2v47.2H485.4z M467,326c3,0,5.6-1,7.7-2.9
		c2.1-1.9,3.2-4.4,3.2-7.4v-5.6l-5.7,0.3c-8.2,0.3-12.3,3.3-12.3,9C459.9,323.8,462.3,326,467,326z"/>
</g>
<g class="st1">
	<path class="st2" d="M538.1,342.2h-24.8v-98.8h24.8V342.2z"/>
</g>
<g class="st1">
	<path class="st2" d="M129.9,439c0,5.8-1.5,10.9-4.4,15.3s-7.1,7.9-12.6,10.4c-5.5,2.5-12,3.7-19.4,3.7c-6.2,0-11.4-0.4-15.6-1.3
		c-4.2-0.9-8.5-2.4-13.1-4.5v-22.3c4.8,2.5,9.8,4.4,14.9,5.7c5.2,1.4,9.9,2.1,14.2,2.1c3.7,0,6.5-0.6,8.2-1.9c1.7-1.3,2.6-3,2.6-5
		c0-1.3-0.3-2.4-1-3.3c-0.7-1-1.8-1.9-3.4-2.9c-1.5-1-5.7-3-12.3-6c-6.1-2.8-10.6-5.4-13.6-8c-3-2.6-5.3-5.5-6.7-8.9
		c-1.5-3.3-2.2-7.3-2.2-11.9c0-8.5,3.1-15.2,9.3-20c6.2-4.8,14.8-7.2,25.6-7.2c9.6,0,19.4,2.2,29.4,6.7l-7.7,19.4
		c-8.7-4-16.2-6-22.5-6c-3.3,0-5.6,0.6-7.1,1.7c-1.5,1.1-2.2,2.6-2.2,4.3c0,1.8,0.9,3.4,2.8,4.9c1.9,1.4,7,4.1,15.3,7.9
		c8,3.6,13.6,7.5,16.7,11.6C128.3,427.6,129.9,432.8,129.9,439z"/>
</g>
<g class="st1">
	<path class="st2" d="M170,468.5c-11.8,0-20.7-3.2-26.8-9.5c-6.1-6.3-9.1-15.5-9.1-27.4c0-11.9,3.3-21.2,9.8-27.7
		c6.6-6.6,15.9-9.8,28-9.8c8.3,0,16.2,1.8,23.5,5.5l-7.3,18.3c-3-1.3-5.8-2.4-8.3-3.1c-2.5-0.8-5.2-1.2-7.9-1.2
		c-4,0-7.1,1.6-9.3,4.7c-2.2,3.1-3.3,7.6-3.3,13.3c0,11.5,4.3,17.3,12.8,17.3c7.3,0,14.3-2.1,20.9-6.3v19.7
		C186.6,466.4,178.9,468.5,170,468.5z"/>
</g>
<g class="st1">
	<path class="st2" d="M246.9,467.2V428c0-9.6-2.9-14.5-8.6-14.5c-4.1,0-7.1,1.7-9,5.1c-1.9,3.4-2.9,9.1-2.9,17v31.6h-24.8v-98.8
		h24.8v14c0,6.3-0.3,13.6-1,21.7h1.1c2.4-3.7,5.2-6.3,8.4-7.9c3.3-1.5,7-2.3,11.4-2.3c8,0,14.3,2.3,18.8,7
		c4.5,4.6,6.7,11.1,6.7,19.5v46.8H246.9z"/>
</g>
<g class="st1">
	<path class="st2" d="M350.7,431.1c0,11.8-3.2,20.9-9.5,27.5c-6.3,6.6-15.2,9.9-26.6,9.9c-10.9,0-19.6-3.4-26.1-10.1
		c-6.5-6.7-9.7-15.8-9.7-27.3c0-11.7,3.2-20.8,9.5-27.3c6.3-6.5,15.2-9.7,26.6-9.7c7.1,0,13.3,1.5,18.7,4.5c5.4,3,9.6,7.3,12.5,12.9
		C349.2,417.1,350.7,423.6,350.7,431.1z M304.1,431.1c0,6.2,0.8,10.9,2.5,14.1c1.7,3.2,4.4,4.9,8.3,4.9c3.9,0,6.6-1.6,8.2-4.9
		c1.6-3.2,2.4-7.9,2.4-14.1c0-6.1-0.8-10.8-2.4-13.9c-1.6-3.1-4.4-4.7-8.3-4.7c-3.8,0-6.5,1.6-8.2,4.7
		C304.9,420.3,304.1,424.9,304.1,431.1z"/>
</g>
<g class="st1">
	<path class="st2" d="M426.8,431.1c0,11.8-3.2,20.9-9.5,27.5c-6.3,6.6-15.2,9.9-26.6,9.9c-10.9,0-19.6-3.4-26.1-10.1
		c-6.5-6.7-9.7-15.8-9.7-27.3c0-11.7,3.2-20.8,9.5-27.3c6.3-6.5,15.2-9.7,26.6-9.7c7.1,0,13.3,1.5,18.7,4.5c5.4,3,9.6,7.3,12.5,12.9
		C425.4,417.1,426.8,423.6,426.8,431.1z M380.2,431.1c0,6.2,0.8,10.9,2.5,14.1c1.7,3.2,4.4,4.9,8.3,4.9c3.9,0,6.6-1.6,8.2-4.9
		c1.6-3.2,2.4-7.9,2.4-14.1c0-6.1-0.8-10.8-2.4-13.9c-1.6-3.1-4.4-4.7-8.3-4.7c-3.8,0-6.5,1.6-8.2,4.7
		C381.1,420.3,380.2,424.9,380.2,431.1z"/>
</g>
<g class="st1">
	<path class="st2" d="M459.3,467.2h-24.8v-98.8h24.8V467.2z"/>
</g>
</svg>
