<?xml version="1.0" encoding="UTF-8" standalone="no"?>
<svg
   xmlns:dc="http://purl.org/dc/elements/1.1/"
   xmlns:cc="http://creativecommons.org/ns#"
   xmlns:rdf="http://www.w3.org/1999/02/22-rdf-syntax-ns#"
   xmlns:svg="http://www.w3.org/2000/svg"
   xmlns="http://www.w3.org/2000/svg"
   viewBox="0 0 230.84 230.84"
   height="230.84"
   width="230.84"
   xml:space="preserve"
   id="svg2"
   version="1.1"><metadata
     id="metadata8"><rdf:RDF><cc:Work
         rdf:about=""><dc:format>image/svg+xml</dc:format><dc:type
           rdf:resource="http://purl.org/dc/dcmitype/StillImage" /></cc:Work></rdf:RDF></metadata><defs
     id="defs6" /><g
     transform="matrix(1.3333333,0,0,-1.3333333,0,230.84)"
     id="g10"><g
       transform="scale(0.1)"
       id="g12"><path
         id="path94"
         style="fill:#22356b;fill-opacity:1;fill-rule:nonzero;stroke:none"
         d="m 315.066,1011.21 h 344.309 l 172.176,298.18 -172.176,298.2 H 315.066 L 142.91,1309.39 Z M 730.828,887.461 H 243.613 L 0,1309.39 243.613,1731.34 H 730.828 L 974.461,1309.39 730.828,887.461" /><path
         id="path96"
         style="fill:#f57d20;fill-opacity:1;fill-rule:nonzero;stroke:none"
         d="m 673.152,567.629 h 344.318 l 172.15,298.211 -172.15,298.18 H 673.152 L 500.996,865.84 Z M 1088.92,443.879 H 601.699 L 358.086,865.84 601.699,1287.77 H 1088.92 L 1332.53,865.84 1088.92,443.879" /><path
         id="path98"
         style="fill:#1574c2;fill-opacity:1;fill-rule:nonzero;stroke:none"
         d="M 315.066,123.75 H 659.375 L 831.551,421.961 659.375,720.16 H 315.066 L 142.91,421.961 Z M 730.828,0 H 243.613 L 0,421.961 243.613,843.906 H 730.828 L 974.461,421.961 730.828,0" /></g></g></svg>