<?xml version="1.0"?>
<svg width="230.84" height="230.84" xmlns="http://www.w3.org/2000/svg" xmlns:svg="http://www.w3.org/2000/svg">
 <metadata id="metadata8">image/svg+xml</metadata>

 <g class="layer">
  <title>Layer 1</title>
  <g id="g10" transform="matrix(1.33333 0 0 -1.33333 0 230.84)">
   <g id="g12" transform="translate(0.750002 0) scale(0.1 0.1)">
    <path d="m517.566502,1011.21l344.309,0l172.176,298.18l-172.176,298.2l-344.309,0l-172.156,-298.2l172.156,-298.18zm415.762,-123.749l-487.215,0l-243.613,421.929l243.613,421.95l487.215,0l243.633,-421.95l-243.633,-421.929" fill="#22356b" fill-rule="nonzero" id="path94"/>
    <path d="m875.652502,567.629l344.318,0l172.15,298.211l-172.15,298.18l-344.318,0l-172.156,-298.18l172.156,-298.211zm415.768,-123.75l-487.221,0l-243.613,421.961l243.613,421.93l487.221,0l243.61,-421.93l-243.61,-421.961" fill="#f57d20" fill-rule="nonzero" id="path96"/>
    <path d="m517.566502,123.75l344.309,0l172.176,298.211l-172.176,298.199l-344.309,0l-172.156,-298.199l172.156,-298.211zm415.762,-123.75l-487.215,0l-243.613,421.961l243.613,421.945l487.215,0l243.633,-421.945l-243.633,-421.961" fill="#1574c2" fill-rule="nonzero" id="path98"/>
   </g>
  </g>
 </g>
</svg>