<?xml version="1.0" encoding="UTF-8" standalone="no"?>
<svg
   xmlns:dc="http://purl.org/dc/elements/1.1/"
   xmlns:cc="http://creativecommons.org/ns#"
   xmlns:rdf="http://www.w3.org/1999/02/22-rdf-syntax-ns#"
   xmlns:svg="http://www.w3.org/2000/svg"
   xmlns="http://www.w3.org/2000/svg"
   viewBox="0 0 572.10669 230.84"
   height="230.84"
   width="572.10669"
   xml:space="preserve"
   id="svg2"
   version="1.1"><metadata
     id="metadata8"><rdf:RDF><cc:Work
         rdf:about=""><dc:format>image/svg+xml</dc:format><dc:type
           rdf:resource="http://purl.org/dc/dcmitype/StillImage" /></cc:Work></rdf:RDF></metadata><defs
     id="defs6" /><g
     transform="matrix(1.3333333,0,0,-1.3333333,0,230.84)"
     id="g10"><g
       transform="scale(0.1)"
       id="g12"><path
         id="path14"
         style="fill:#ffffff;fill-opacity:1;fill-rule:nonzero;stroke:none"
         d="m 1585.81,1268.52 c 0,-85.04 17.16,-149.52 51.49,-193.46 34.32,-43.93 85.19,-65.9 152.59,-65.9 67.08,0 117.71,21.73 151.88,65.2 34.17,43.45 51.26,108.18 51.26,194.16 0,84.71 -16.94,148.96 -50.79,192.74 -33.86,43.77 -84.32,65.67 -151.41,65.67 -67.72,0 -118.81,-21.9 -153.29,-65.67 -34.49,-43.78 -51.73,-108.03 -51.73,-192.74 z m 527.21,0 c 0,-112.43 -28.11,-199.84 -84.33,-262.19 -56.21,-62.365 -135.82,-93.545 -238.8,-93.545 -104.25,0 -184.32,30.945 -240.22,92.835 -55.91,61.88 -83.86,149.83 -83.86,263.84 0,114.01 28.11,201.56 84.33,262.66 56.22,61.09 136.44,91.65 240.69,91.65 102.67,0 182.04,-31.02 238.09,-93.06 56.06,-62.06 84.1,-149.45 84.1,-262.19" /><path
         id="path16"
         style="fill:#ffffff;fill-opacity:1;fill-rule:nonzero;stroke:none"
         d="m 2465.2,1235.92 v -218.73 h 119.99 c 47.25,0 82.91,9.05 107.01,27.17 24.09,18.1 36.14,46.69 36.14,85.74 0,35.91 -12.29,62.51 -36.85,79.83 -24.57,17.33 -61.89,25.99 -111.96,25.99 z m 0,91.65 h 108.66 c 47.24,0 81.72,7.47 103.45,22.44 21.74,14.95 32.6,40.39 32.6,76.29 0,32.43 -11.74,55.9 -35.19,70.39 -23.47,14.48 -60.71,21.73 -111.72,21.73 h -97.8 z m -112.91,285.33 h 205.03 c 95.11,0 163.85,-13.86 206.21,-41.57 42.36,-27.72 63.54,-71.49 63.54,-131.33 0,-40.32 -10.39,-73.86 -31.18,-100.62 -20.78,-26.77 -50.71,-43.63 -89.76,-50.55 v -4.73 c 48.5,-9.14 84.17,-27.15 107,-54.09 22.84,-26.92 34.25,-63.38 34.25,-109.35 0,-62.05 -21.65,-110.64 -64.95,-145.746 -43.31,-35.125 -103.54,-52.676 -180.7,-52.676 H 2352.29 V 1612.9" /><path
         id="path18"
         style="fill:#ffffff;fill-opacity:1;fill-rule:nonzero;stroke:none"
         d="m 3372.2,1296.86 h 254.15 V 950.109 c -41.58,-13.546 -81.49,-23.144 -119.76,-28.816 -38.26,-5.668 -79.6,-8.508 -124,-8.508 -104.57,0 -185.19,30.945 -241.88,92.835 -56.69,61.88 -85.04,149.2 -85.04,261.95 0,111.17 31.97,198.18 95.91,261 63.93,62.84 151.95,94.25 264.07,94.25 72.12,0 140.46,-13.86 205.03,-41.57 l -39.69,-94.01 c -56.05,25.82 -112.11,38.74 -168.17,38.74 -73.7,0 -131.96,-23.14 -174.79,-69.44 -42.84,-46.31 -64.25,-109.61 -64.25,-189.91 0,-84.41 19.29,-148.58 57.87,-192.5 38.57,-43.94 94.08,-65.92 166.52,-65.92 36.54,0 75.59,4.56 117.16,13.71 v 178.09 H 3372.2 v 96.85" /><path
         id="path20"
         style="fill:#ffffff;fill-opacity:1;fill-rule:nonzero;stroke:none"
         d="M 4290.23,922.238 H 3899.55 V 1612.9 h 390.68 v -95.43 h -277.77 v -188.01 h 260.3 v -94.49 h -260.3 v -216.83 h 277.77 v -95.902" /><path
         id="path22"
         style="fill:#ffffff;fill-opacity:1;fill-rule:nonzero;stroke:none"
         d="m 1499.04,521.371 c 0,-21.762 4.39,-38.25 13.18,-49.492 8.77,-11.238 21.78,-16.859 39.03,-16.859 17.16,0 30.11,5.562 38.85,16.679 8.74,11.11 13.11,27.68 13.11,49.672 0,21.668 -4.33,38.098 -12.99,49.309 -8.66,11.191 -21.57,16.789 -38.74,16.789 -17.32,0 -30.39,-5.598 -39.21,-16.789 -8.82,-11.211 -13.23,-27.641 -13.23,-49.309 z m 134.87,0 c 0,-28.762 -7.19,-51.121 -21.58,-67.07 -14.37,-15.961 -34.74,-23.942 -61.08,-23.942 -26.67,0 -47.16,7.922 -61.46,23.75 -14.3,15.832 -21.45,38.332 -21.45,67.5 0,29.161 7.2,51.563 21.57,67.192 14.39,15.64 34.91,23.449 61.57,23.449 26.27,0 46.58,-7.941 60.91,-23.809 14.35,-15.871 21.52,-38.23 21.52,-67.07" /><path
         id="path24"
         style="fill:#ffffff;fill-opacity:1;fill-rule:nonzero;stroke:none"
         d="m 1702.47,432.781 h -28.64 v 176.68 h 99.7 v -24.41 h -71.06 v -55.219 h 66.59 v -24.543 h -66.59 v -72.508" /><path
         id="path26"
         style="fill:#ffffff;fill-opacity:1;fill-rule:nonzero;stroke:none"
         d="m 1837.41,432.781 h -28.64 v 176.68 h 99.71 v -24.41 h -71.07 V 529.832 H 1904 v -24.543 h -66.59 v -72.508" /><path
         id="path28"
         style="fill:#ffffff;fill-opacity:1;fill-rule:nonzero;stroke:none"
         d="m 1943.72,432.781 v 176.68 h 28.89 v -176.68 h -28.89" /><path
         id="path30"
         style="fill:#ffffff;fill-opacity:1;fill-rule:nonzero;stroke:none"
         d="m 2093.9,587.23 c -16.61,0 -29.66,-5.878 -39.16,-17.648 -9.51,-11.762 -14.26,-27.992 -14.26,-48.703 0,-21.668 4.57,-38.07 13.71,-49.18 9.15,-11.117 22.38,-16.679 39.71,-16.679 7.49,0 14.73,0.742 21.74,2.242 7.02,1.476 14.3,3.398 21.88,5.738 v -24.781 c -13.86,-5.239 -29.57,-7.86 -47.13,-7.86 -25.87,0 -45.72,7.84 -59.58,23.512 -13.86,15.668 -20.79,38.078 -20.79,67.25 0,18.367 3.37,34.449 10.1,48.231 6.71,13.769 16.45,24.32 29.18,31.66 12.73,7.328 27.67,10.988 44.83,10.988 18.05,0 34.73,-3.789 50.04,-11.352 l -10.4,-24.058 c -5.96,2.832 -12.27,5.308 -18.91,7.43 -6.65,2.14 -13.64,3.21 -20.96,3.21" /><path
         id="path32"
         style="fill:#ffffff;fill-opacity:1;fill-rule:nonzero;stroke:none"
         d="m 2281,432.781 h -99.94 v 176.68 H 2281 v -24.41 h -71.05 v -48.102 h 66.59 v -24.168 h -66.59 V 457.32 H 2281 v -24.539" /><path
         id="path34"
         style="fill:#ffffff;fill-opacity:1;fill-rule:nonzero;stroke:none"
         d="m 2411.92,521.371 c 0,-21.762 4.39,-38.25 13.18,-49.492 8.78,-11.238 21.78,-16.859 39.03,-16.859 17.16,0 30.11,5.562 38.85,16.679 8.74,11.11 13.11,27.68 13.11,49.672 0,21.668 -4.33,38.098 -12.99,49.309 -8.66,11.191 -21.57,16.789 -38.74,16.789 -17.32,0 -30.39,-5.598 -39.2,-16.789 -8.83,-11.211 -13.24,-27.641 -13.24,-49.309 z m 134.87,0 c 0,-28.762 -7.19,-51.121 -21.58,-67.07 -14.37,-15.961 -34.74,-23.942 -61.08,-23.942 -26.67,0 -47.16,7.922 -61.46,23.75 -14.3,15.832 -21.45,38.332 -21.45,67.5 0,29.161 7.2,51.563 21.57,67.192 14.39,15.64 34.91,23.449 61.57,23.449 26.27,0 46.58,-7.941 60.91,-23.809 14.35,-15.871 21.52,-38.23 21.52,-67.07" /><path
         id="path36"
         style="fill:#ffffff;fill-opacity:1;fill-rule:nonzero;stroke:none"
         d="m 2614.11,432.781 h -28.64 v 176.68 h 99.7 v -24.41 h -71.06 v -55.219 h 66.59 v -24.543 h -66.59 v -72.508" /><path
         id="path38"
         style="fill:#ffffff;fill-opacity:1;fill-rule:nonzero;stroke:none"
         d="M 2816.82,513.031 V 457.07 h 30.69 c 12.09,0 21.21,2.321 27.37,6.95 6.16,4.628 9.25,11.949 9.25,21.941 0,9.187 -3.14,15.988 -9.42,20.418 -6.29,4.43 -15.84,6.652 -28.65,6.652 z m 0,23.449 h 27.79 c 12.09,0 20.91,1.911 26.46,5.739 5.57,3.82 8.34,10.332 8.34,19.511 0,8.301 -3,14.301 -9,18.008 -6,3.703 -15.53,5.551 -28.58,5.551 h -25.01 z m -28.89,72.981 h 52.45 c 24.34,0 41.91,-3.539 52.75,-10.629 10.83,-7.094 16.25,-18.293 16.25,-33.594 0,-10.316 -2.65,-18.898 -7.97,-25.75 -5.32,-6.84 -12.97,-11.156 -22.96,-12.929 v -1.207 c 12.41,-2.332 21.53,-6.942 27.37,-13.832 5.84,-6.891 8.76,-16.219 8.76,-27.969 0,-15.879 -5.54,-28.301 -16.61,-37.289 -11.09,-8.981 -26.49,-13.481 -46.23,-13.481 h -63.81 v 176.68" /><path
         id="path40"
         style="fill:#ffffff;fill-opacity:1;fill-rule:nonzero;stroke:none"
         d="m 2954.53,432.781 v 176.68 h 28.89 v -176.68 h -28.89" /><path
         id="path42"
         style="fill:#ffffff;fill-opacity:1;fill-rule:nonzero;stroke:none"
         d="m 3053.54,521.371 c 0,-21.762 4.39,-38.25 13.18,-49.492 8.78,-11.238 21.78,-16.859 39.03,-16.859 17.16,0 30.11,5.562 38.85,16.679 8.74,11.11 13.11,27.68 13.11,49.672 0,21.668 -4.33,38.098 -12.98,49.309 -8.67,11.191 -21.58,16.789 -38.74,16.789 -17.33,0 -30.4,-5.598 -39.21,-16.789 -8.83,-11.211 -13.24,-27.641 -13.24,-49.309 z m 134.87,0 c 0,-28.762 -7.19,-51.121 -21.58,-67.07 -14.37,-15.961 -34.74,-23.942 -61.08,-23.942 -26.67,0 -47.16,7.922 -61.45,23.75 -14.31,15.832 -21.46,38.332 -21.46,67.5 0,29.161 7.2,51.563 21.57,67.192 14.39,15.64 34.91,23.449 61.58,23.449 26.26,0 46.57,-7.941 60.9,-23.809 14.35,-15.871 21.52,-38.23 21.52,-67.07" /><path
         id="path44"
         style="fill:#ffffff;fill-opacity:1;fill-rule:nonzero;stroke:none"
         d="m 3302.49,432.781 -51.24,147.559 h -0.97 c 1.38,-21.91 2.06,-42.461 2.06,-61.629 v -85.93 h -26.23 v 176.68 h 40.73 l 49.07,-140.539 h 0.72 l 50.52,140.539 H 3408 v -176.68 h -27.81 v 87.379 c 0,8.781 0.23,20.219 0.68,34.32 0.44,14.102 0.82,22.641 1.14,25.622 h -0.97 l -53.05,-147.321 h -25.5" /><path
         id="path46"
         style="fill:#ffffff;fill-opacity:1;fill-rule:nonzero;stroke:none"
         d="m 3557.67,432.781 h -99.94 v 176.68 h 99.94 v -24.41 h -71.05 v -48.102 h 66.59 v -24.168 h -66.59 V 457.32 h 71.05 v -24.539" /><path
         id="path48"
         style="fill:#ffffff;fill-opacity:1;fill-rule:nonzero;stroke:none"
         d="m 3712.32,521.852 c 0,42.296 -19.78,63.437 -59.33,63.437 h -25.02 V 457.07 h 20.54 c 42.54,0 63.81,21.59 63.81,64.782 z m 30.45,0.957 c 0,-29.161 -8.09,-51.45 -24.28,-66.879 -16.2,-15.43 -39.53,-23.149 -69.98,-23.149 h -49.43 v 176.68 h 54.63 c 28.11,0 49.99,-7.563 65.62,-22.711 15.63,-15.148 23.44,-36.461 23.44,-63.941" /><path
         id="path50"
         style="fill:#ffffff;fill-opacity:1;fill-rule:nonzero;stroke:none"
         d="m 3781.46,432.781 v 176.68 h 28.89 v -176.68 h -28.89" /><path
         id="path52"
         style="fill:#ffffff;fill-opacity:1;fill-rule:nonzero;stroke:none"
         d="m 3935.38,587.23 c -16.6,0 -29.66,-5.878 -39.16,-17.648 -9.5,-11.762 -14.26,-27.992 -14.26,-48.703 0,-21.668 4.57,-38.07 13.71,-49.18 9.15,-11.117 22.39,-16.679 39.71,-16.679 7.49,0 14.74,0.742 21.75,2.242 7.01,1.476 14.29,3.398 21.87,5.738 v -24.781 c -13.85,-5.239 -29.57,-7.86 -47.13,-7.86 -25.87,0 -45.72,7.84 -59.58,23.512 -13.85,15.668 -20.79,38.078 -20.79,67.25 0,18.367 3.37,34.449 10.1,48.231 6.72,13.769 16.46,24.32 29.18,31.66 12.73,7.328 27.68,10.988 44.83,10.988 18.05,0 34.73,-3.789 50.04,-11.352 l -10.4,-24.058 c -5.95,2.832 -12.26,5.308 -18.9,7.43 -6.65,2.14 -13.65,3.21 -20.97,3.21" /><path
         id="path54"
         style="fill:#ffffff;fill-opacity:1;fill-rule:nonzero;stroke:none"
         d="m 4104.65,506.75 -16.56,48.102 c -1.21,3.218 -2.88,8.289 -5.02,15.218 -2.13,6.918 -3.6,12 -4.4,15.219 -2.18,-9.91 -5.36,-20.738 -9.55,-32.508 l -15.96,-46.031 z m 25.25,-73.969 -17.64,49.071 h -67.55 l -17.29,-49.071 h -30.45 l 66.1,177.41 h 31.43 l 66.1,-177.41 h -30.7" /><path
         id="path56"
         style="fill:#ffffff;fill-opacity:1;fill-rule:nonzero;stroke:none"
         d="m 4187.14,432.781 v 176.68 h 28.88 V 457.559 h 74.81 v -24.778 h -103.69" /><path
         id="path58"
         style="fill:#ffffff;fill-opacity:1;fill-rule:nonzero;stroke:none"
         d="m 1549.32,213.609 h 65 V 124.91 c -10.63,-3.461 -20.83,-5.91 -30.63,-7.371 -9.78,-1.437 -20.36,-2.18 -31.72,-2.18 -26.75,0 -47.37,7.922 -61.87,23.75 -14.51,15.832 -21.76,38.18 -21.76,67.012 0,28.438 8.18,50.699 24.54,66.77 16.35,16.078 38.87,24.109 67.55,24.109 18.45,0 35.94,-3.539 52.45,-10.629 l -10.16,-24.051 c -14.33,6.61 -28.68,9.91 -43.01,9.91 -18.86,0 -33.76,-5.921 -44.72,-17.769 -10.96,-11.84 -16.44,-28.031 -16.44,-48.582 0,-21.59 4.94,-38.008 14.81,-49.238 9.87,-11.243 24.07,-16.86 42.6,-16.86 9.34,0 19.33,1.168 29.97,3.5 v 45.559 h -36.61 v 24.769" /><path
         id="path60"
         style="fill:#ffffff;fill-opacity:1;fill-rule:nonzero;stroke:none"
         d="m 1689.83,212.289 h 20.06 c 13.46,0 23.2,2.5 29.25,7.492 6.04,5 9.06,12.41 9.06,22.239 0,9.98 -3.26,17.16 -9.78,21.511 -6.54,4.348 -16.36,6.52 -29.5,6.52 h -19.09 z m 0,-23.93 v -70.578 h -28.88 v 176.68 h 49.91 c 22.8,0 39.68,-4.262 50.63,-12.813 10.96,-8.527 16.44,-21.418 16.44,-38.668 0,-21.992 -11.44,-37.66 -34.32,-47 l 49.91,-78.199 h -32.87 l -42.3,70.578 h -28.52" /><path
         id="path62"
         style="fill:#ffffff;fill-opacity:1;fill-rule:nonzero;stroke:none"
         d="m 1916.31,191.75 -16.56,48.102 c -1.21,3.218 -2.88,8.289 -5.01,15.218 -2.14,6.918 -3.61,12 -4.41,15.219 -2.18,-9.91 -5.36,-20.738 -9.55,-32.508 l -15.96,-46.031 z m 25.25,-73.969 -17.64,49.071 h -67.55 l -17.29,-49.071 h -30.45 l 66.11,177.41 h 31.42 l 66.1,-177.41 h -30.7" /><path
         id="path64"
         style="fill:#ffffff;fill-opacity:1;fill-rule:nonzero;stroke:none"
         d="m 2108.94,206.852 c 0,42.296 -19.78,63.437 -59.33,63.437 h -25.02 V 142.07 h 20.55 c 42.53,0 63.8,21.59 63.8,64.782 z m 30.45,0.957 c 0,-29.161 -8.09,-51.45 -24.28,-66.879 -16.2,-15.43 -39.53,-23.149 -69.97,-23.149 h -49.44 v 176.68 h 54.63 c 28.12,0 49.99,-7.563 65.63,-22.711 15.62,-15.148 23.43,-36.461 23.43,-63.941" /><path
         id="path66"
         style="fill:#ffffff;fill-opacity:1;fill-rule:nonzero;stroke:none"
         d="M 2310.83,294.461 V 180.148 c 0,-13.058 -2.8,-24.468 -8.4,-34.269 -5.6,-9.777 -13.7,-17.32 -24.29,-22.598 -10.59,-5.269 -23.27,-7.922 -38,-7.922 -21.92,0 -38.96,5.801 -51.13,17.411 -12.17,11.601 -18.24,27.55 -18.24,47.859 v 113.832 h 29 V 182.68 c 0,-14.578 3.38,-25.328 10.15,-32.27 6.77,-6.922 17.16,-10.39 31.18,-10.39 27.23,0 40.84,14.3 40.84,42.902 v 111.539 h 28.89" /><path
         id="path68"
         style="fill:#ffffff;fill-opacity:1;fill-rule:nonzero;stroke:none"
         d="m 2444.59,191.75 -16.55,48.102 c -1.22,3.218 -2.88,8.289 -5.02,15.218 -2.14,6.918 -3.61,12 -4.41,15.219 -2.18,-9.91 -5.36,-20.738 -9.55,-32.508 L 2393.1,191.75 Z m 25.25,-73.969 -17.63,49.071 h -67.56 l -17.29,-49.071 h -30.45 l 66.11,177.41 h 31.42 l 66.11,-177.41 h -30.71" /><path
         id="path70"
         style="fill:#ffffff;fill-opacity:1;fill-rule:nonzero;stroke:none"
         d="m 2589.1,117.781 h -28.89 v 151.91 h -51.96 v 24.77 h 132.81 v -24.77 h -51.96 v -151.91" /><path
         id="path72"
         style="fill:#ffffff;fill-opacity:1;fill-rule:nonzero;stroke:none"
         d="m 2772.28,117.781 h -99.94 v 176.68 h 99.94 v -24.41 h -71.05 v -48.102 h 66.59 v -24.168 h -66.59 V 142.32 h 71.05 v -24.539" /><path
         id="path74"
         style="fill:#ffffff;fill-opacity:1;fill-rule:nonzero;stroke:none"
         d="m 2983.11,117.781 h -99.94 v 176.68 h 99.94 v -24.41 h -71.05 v -48.102 h 66.59 v -24.168 h -66.59 V 142.32 h 71.05 v -24.539" /><path
         id="path76"
         style="fill:#ffffff;fill-opacity:1;fill-rule:nonzero;stroke:none"
         d="m 3138.76,206.852 c 0,42.296 -19.79,63.437 -59.34,63.437 H 3054.4 V 142.07 h 20.55 c 42.54,0 63.81,21.59 63.81,64.782 z m 30.45,0.957 c 0,-29.161 -8.1,-51.45 -24.29,-66.879 -16.19,-15.43 -39.52,-23.149 -69.97,-23.149 h -49.43 v 176.68 h 54.63 c 28.11,0 49.99,-7.563 65.62,-22.711 15.63,-15.148 23.44,-36.461 23.44,-63.941" /><path
         id="path78"
         style="fill:#ffffff;fill-opacity:1;fill-rule:nonzero;stroke:none"
         d="M 3347.14,294.461 V 180.148 c 0,-13.058 -2.81,-24.468 -8.4,-34.269 -5.6,-9.777 -13.7,-17.32 -24.29,-22.598 -10.59,-5.269 -23.27,-7.922 -38.01,-7.922 -21.91,0 -38.95,5.801 -51.12,17.411 -12.17,11.601 -18.24,27.55 -18.24,47.859 v 113.832 h 29 V 182.68 c 0,-14.578 3.38,-25.328 10.15,-32.27 6.77,-6.922 17.16,-10.39 31.18,-10.39 27.23,0 40.84,14.3 40.84,42.902 v 111.539 h 28.89" /><path
         id="path80"
         style="fill:#ffffff;fill-opacity:1;fill-rule:nonzero;stroke:none"
         d="m 3470.22,272.23 c -16.6,0 -29.65,-5.878 -39.16,-17.648 -9.5,-11.762 -14.25,-27.992 -14.25,-48.703 0,-21.668 4.57,-38.07 13.71,-49.18 9.15,-11.117 22.38,-16.679 39.7,-16.679 7.49,0 14.74,0.742 21.75,2.242 7.01,1.476 14.3,3.398 21.88,5.738 v -24.781 c -13.86,-5.239 -29.57,-7.86 -47.13,-7.86 -25.87,0 -45.73,7.84 -59.58,23.512 -13.86,15.668 -20.79,38.078 -20.79,67.25 0,18.367 3.37,34.449 10.09,48.231 6.72,13.769 16.46,24.32 29.18,31.66 12.74,7.328 27.68,10.988 44.84,10.988 18.04,0 34.72,-3.789 50.04,-11.352 l -10.4,-24.058 c -5.96,2.832 -12.27,5.308 -18.91,7.43 -6.65,2.14 -13.64,3.21 -20.97,3.21" /><path
         id="path82"
         style="fill:#ffffff;fill-opacity:1;fill-rule:nonzero;stroke:none"
         d="m 3640.48,191.75 -16.56,48.102 c -1.21,3.218 -2.88,8.289 -5.01,15.218 -2.14,6.918 -3.61,12 -4.41,15.219 -2.18,-9.91 -5.36,-20.738 -9.55,-32.508 l -15.96,-46.031 z m 25.25,-73.969 -17.64,49.071 h -67.55 l -17.29,-49.071 h -30.45 l 66.11,177.41 h 31.42 l 66.1,-177.41 h -30.7" /><path
         id="path84"
         style="fill:#ffffff;fill-opacity:1;fill-rule:nonzero;stroke:none"
         d="m 3785,117.781 h -28.89 v 151.91 h -51.96 v 24.77 h 132.81 v -24.77 H 3785 v -151.91" /><path
         id="path86"
         style="fill:#ffffff;fill-opacity:1;fill-rule:nonzero;stroke:none"
         d="m 3868.23,117.781 v 176.68 h 28.89 v -176.68 h -28.89" /><path
         id="path88"
         style="fill:#ffffff;fill-opacity:1;fill-rule:nonzero;stroke:none"
         d="m 3969.97,206.371 c 0,-21.762 4.38,-38.25 13.17,-49.492 8.78,-11.238 21.79,-16.859 39.04,-16.859 17.15,0 30.1,5.562 38.84,16.679 8.74,11.11 13.12,27.68 13.12,49.672 0,21.668 -4.34,38.098 -12.99,49.309 -8.66,11.191 -21.57,16.789 -38.74,16.789 -17.32,0 -30.39,-5.598 -39.21,-16.789 -8.83,-11.211 -13.23,-27.641 -13.23,-49.309 z m 134.86,0 c 0,-28.762 -7.18,-51.121 -21.57,-67.07 -14.37,-15.961 -34.75,-23.942 -61.08,-23.942 -26.67,0 -47.16,7.922 -61.46,23.75 -14.31,15.832 -21.45,38.332 -21.45,67.5 0,29.161 7.19,51.563 21.57,67.192 14.38,15.64 34.91,23.449 61.57,23.449 26.27,0 46.57,-7.941 60.91,-23.809 14.34,-15.871 21.51,-38.23 21.51,-67.07" /><path
         id="path90"
         style="fill:#ffffff;fill-opacity:1;fill-rule:nonzero;stroke:none"
         d="m 4289.73,117.781 h -35.41 l -86.89,140.801 h -0.97 l 0.6,-7.871 c 1.13,-14.981 1.7,-28.68 1.7,-41.082 v -91.848 h -26.23 v 176.68 h 35.05 l 86.65,-140.051 h 0.72 c -0.16,1.84 -0.48,8.59 -0.97,20.231 -0.48,11.64 -0.72,20.73 -0.72,27.257 v 92.563 h 26.47 v -176.68" /><path
         id="path92"
         style="fill:#ffffff;fill-opacity:1;fill-rule:nonzero;stroke:none"
         d="M 4284.7,773.301 H 1462.2 v 11.133 h 2822.5 v -11.133" /><path
         id="path94"
         style="fill:#ffffff;fill-opacity:1;fill-rule:nonzero;stroke:none"
         d="M 890.359,567.629 730.828,843.906 H 513.66 l -12.664,21.934 12.488,21.621 H 730.828 L 890.527,1164.02 H 1017.47 L 1189.62,865.84 1017.47,567.629 Z M 585.098,720.16 h 74.277 L 747.449,567.629 H 673.152 Z M 831.551,421.961 659.375,123.75 H 315.066 L 142.91,421.961 315.066,720.16 H 442.195 L 601.699,443.879 H 818.906 Z M 747.617,1164.02 659.375,1011.21 H 584.93 l 88.222,152.81 z m -432.551,-152.81 -172.156,298.18 172.156,298.2 h 344.309 l 172.176,-298.2 -12.481,-21.62 H 601.699 L 442.02,1011.21 Z M 1332.53,865.84 1088.92,1287.77 H 961.98 l 12.481,21.62 -243.633,421.95 H 243.613 L 0,1309.39 243.613,887.461 H 370.574 L 358.086,865.84 370.75,843.906 H 243.613 L 0,421.961 243.613,0 h 487.215 l 243.633,421.961 -12.645,21.918 h 127.104 l 243.61,421.961" /></g></g></svg>