<svg xmlns="http://www.w3.org/2000/svg" width="171" height="32" viewBox="0 0 171 32">
    <g fill="#FFF" fill-rule="evenodd">
        <path d="M30.314 11.204h1.21c2.334 0 3.644-1.23 3.644-3.602s-1.36-3.6-3.645-3.6h-1.21v7.202zm-3.125-9.558h4.267c4.082 0 6.938 1.297 6.938 5.905 0 4.454-2.94 6.008-6.938 6.008h-4.267V1.646zM48.842 13.559h-2.756V11.92h-.034c-.604 1.28-1.814 1.842-3.192 1.842-2.385 0-3.343-1.706-3.343-3.55V4.667h3.024v4.301c0 1.672.571 2.236 1.395 2.236 1.243 0 1.882-.87 1.882-2.782V4.667h3.024v8.892M50.62.759h3.024v7.646h.034l2.52-3.738h3.31l-3.041 4.079 3.292 4.813h-3.663l-2.418-4.403h-.034v4.403H50.62V.759"/>
        <path d="M65.873 8.268c0-1.024-.47-1.86-1.68-1.86-1.093 0-1.614.836-1.68 1.86h3.36zm-3.327 1.741c.168 1.23 1.092 1.707 2.57 1.707a5.59 5.59 0 0 0 2.671-.684v2.169c-.973.392-2.083.562-3.208.562-2.89 0-5.09-1.723-5.09-4.658 0-2.936 1.965-4.643 4.686-4.643 3.243 0 4.42 2.339 4.42 4.983v.564h-6.049zM84.82 8.626c0 3.346-1.664 5.137-4.553 5.137-2.89 0-4.553-1.791-4.553-5.137v-6.98h1.68v6.759c0 2.287.706 3.857 2.872 3.857 2.168 0 2.874-1.57 2.874-3.857V1.646h1.68v6.98M87.589 4.855h1.529v1.382h.034c.47-.99 1.613-1.587 2.805-1.587 2.218 0 3.21 1.4 3.21 3.738v5.17h-1.58V9.054c0-2.03-.437-3.021-1.815-3.106-1.797 0-2.604 1.468-2.604 3.584v4.028h-1.58V4.855M97.97 13.559h1.579V4.855H97.97v8.704zm-.101-10.65h1.78V1.1h-1.78v1.81zM106.15 13.559h-1.881l-3.075-8.704h1.73l2.319 7.1h.034l2.368-7.1h1.58l-3.075 8.704M116.212 8.37c0-1.33-.773-2.423-2.134-2.423-1.546 0-2.184 1.297-2.302 2.423h4.436zm1.024 4.83c-.604.222-1.293.563-2.704.563-3.041 0-4.436-1.877-4.436-4.71 0-2.577 1.597-4.403 4.015-4.403 2.857 0 3.78 2.116 3.78 4.915h-6.115c0 1.724 1.328 2.901 2.823 2.901 1.042 0 2.252-.545 2.637-.87v1.605zM119.923 4.855h1.479v1.348h.034c.42-.905 1.327-1.553 2.234-1.553.47 0 .706.051 1.04.12v1.433a2.3 2.3 0 0 0-.872-.153c-1.412 0-2.336 1.365-2.336 3.55v3.959h-1.58V4.855M125.734 11.852c.622.41 1.513.614 1.966.614.723 0 1.613-.307 1.613-1.245 0-1.587-3.713-1.451-3.713-3.891 0-1.81 1.327-2.68 3.024-2.68.739 0 1.344.154 1.965.341l-.134 1.4c-.353-.222-1.294-.444-1.663-.444-.807 0-1.512.341-1.512 1.058 0 1.775 3.713 1.263 3.713 4.045 0 1.86-1.461 2.713-2.99 2.713-.807 0-1.63-.085-2.353-.477l.084-1.434M133.024 13.559h1.58V4.855h-1.58v8.704zm-.101-10.65h1.78V1.1h-1.78v1.81zM141.96 6.152h-2.267v4.762c0 1.007.604 1.552 1.327 1.552.487 0 .84-.153 1.076-.307v1.366c-.353.102-.841.238-1.345.238-1.629 0-2.638-.785-2.638-2.525V6.152h-1.931V4.855h1.93V2.84l1.582-.51v2.525h2.267v1.297M143.22 15.914c.202.068.471.136.739.136 1.41 0 1.882-1.98 1.882-2.15 0-.187-.202-.631-.303-.922l-2.906-8.123h1.73l2.303 7.202h.032l2.352-7.202h1.597l-3.158 8.891c-.59 1.673-1.21 3.602-3.293 3.602-.504 0-.79-.068-1.076-.12l.1-1.314M32.959 21.682c-.858-.341-1.328-.494-2.2-.494-.94 0-2.048.34-2.048 1.586 0 2.285 5.038 1.756 5.038 5.679 0 2.541-1.932 3.547-4.282 3.547-.824 0-1.63-.238-2.402-.494l.169-1.586c.57.238 1.578.579 2.434.579.957 0 2.3-.545 2.3-1.944 0-2.66-5.037-1.927-5.037-5.628 0-2.115 1.646-3.24 3.761-3.24.773 0 1.695.136 2.5.426l-.233 1.569M41.07 24.564c-.604-.256-1.208-.375-1.712-.375-1.762 0-2.753 1.603-2.753 3.257 0 1.553.823 3.258 2.855 3.258.536 0 1.208-.17 1.695-.494l.118 1.431c-.655.308-1.41.359-1.982.359-2.585 0-4.365-2.064-4.365-4.554 0-2.643 1.746-4.553 4.365-4.553.639 0 1.46.153 1.915.34l-.135 1.33M42.838 19.004h1.577v5.338h.034c.571-.921 1.561-1.449 2.752-1.449 2.216 0 3.208 1.399 3.208 3.735v5.167H48.83v-4.502c0-2.03-.436-3.02-1.813-3.104-1.797 0-2.602 1.467-2.602 3.582v4.024h-1.577v-12.79M56.642 30.704c1.847 0 2.669-1.705 2.669-3.258 0-1.654-.99-3.257-2.669-3.257-1.696 0-2.686 1.603-2.686 3.257 0 1.553.823 3.258 2.686 3.258zm0-7.811c2.602 0 4.348 1.91 4.348 4.553 0 2.49-1.78 4.554-4.348 4.554-2.585 0-4.365-2.064-4.365-4.554 0-2.643 1.746-4.553 4.365-4.553zM66.653 30.704c1.847 0 2.669-1.705 2.669-3.258 0-1.654-.99-3.257-2.669-3.257-1.696 0-2.686 1.603-2.686 3.257 0 1.553.823 3.258 2.686 3.258zm0-7.811c2.601 0 4.348 1.91 4.348 4.553 0 2.49-1.78 4.554-4.348 4.554-2.586 0-4.366-2.064-4.366-4.554 0-2.643 1.747-4.553 4.366-4.553zM73.072 31.795h1.578v-12.79h-1.578zM85.5 30.704c1.847 0 2.67-1.705 2.67-3.258 0-1.654-.992-3.257-2.67-3.257-1.697 0-2.687 1.603-2.687 3.257 0 1.553.823 3.258 2.687 3.258zm0-7.811c2.602 0 4.348 1.91 4.348 4.553 0 2.49-1.78 4.554-4.348 4.554-2.586 0-4.366-2.064-4.366-4.554 0-2.643 1.746-4.553 4.366-4.553zM92.74 24.394h-2.015v-1.297h2.016v-.8c0-2.116.536-3.497 2.87-3.497.404 0 .74.05 1.059.102l-.068 1.296c-.184-.068-.488-.103-.756-.103-1.36 0-1.528.887-1.528 2.064v.938h2.266v1.297h-2.266v7.401H92.74v-7.401M102.583 19.891h2.77l3.677 9.892 3.61-9.892h2.77v11.904h-1.68v-10.3h-.033l-3.877 10.3h-1.646l-3.878-10.3h-.034v10.3h-1.68V19.891M123.56 26.611c0-1.33-.772-2.422-2.132-2.422-1.545 0-2.182 1.296-2.3 2.422h4.431zm1.023 4.827c-.603.221-1.291.562-2.702.562-3.038 0-4.433-1.877-4.433-4.707 0-2.576 1.596-4.4 4.014-4.4 2.853 0 3.776 2.114 3.776 4.912h-6.11c0 1.722 1.326 2.899 2.82 2.899 1.042 0 2.25-.546 2.635-.87v1.604zM130.666 30.704c1.78 0 2.518-1.791 2.518-3.24 0-1.62-.822-3.275-2.535-3.275-1.712 0-2.384 1.637-2.351 3.224-.033 1.364.671 3.291 2.368 3.291zm2.585-.137h-.034c-.419.649-1.393 1.433-2.92 1.433-2.586 0-3.677-2.336-3.677-4.707 0-2.336 1.209-4.4 3.692-4.4 1.494 0 2.352.597 2.838 1.399h.034v-5.288h1.579v12.791h-1.512v-1.228zM137.402 31.795h1.578v-8.698h-1.578v8.698zm-.101-10.641h1.78v-1.808h-1.78v1.808zM147.059 24.564c-.606-.256-1.209-.375-1.713-.375-1.762 0-2.754 1.603-2.754 3.257 0 1.553.824 3.258 2.855 3.258.537 0 1.209-.17 1.695-.494l.119 1.431c-.655.308-1.41.359-1.982.359-2.585 0-4.365-2.064-4.365-4.554 0-2.643 1.746-4.553 4.365-4.553.639 0 1.46.153 1.915.34l-.135 1.33M149.026 31.795h1.578v-8.698h-1.578v8.698zm-.102-10.641h1.78v-1.808h-1.78v1.808zM153.242 23.097h1.527v1.382h.034c.47-.99 1.612-1.586 2.804-1.586 2.216 0 3.207 1.399 3.207 3.735v5.167h-1.578v-4.502c0-2.03-.437-3.02-1.814-3.104-1.796 0-2.602 1.467-2.602 3.582v4.024h-1.578v-8.698M168.794 26.611c0-1.33-.772-2.422-2.133-2.422-1.544 0-2.182 1.296-2.3 2.422h4.433zm1.024 4.827c-.605.221-1.294.562-2.703.562-3.039 0-4.433-1.877-4.433-4.707 0-2.576 1.596-4.4 4.013-4.4 2.853 0 3.778 2.114 3.778 4.912h-6.112c0 1.722 1.326 2.899 2.82 2.899 1.042 0 2.25-.546 2.637-.87v1.604zM16.995 20.65c.474-.352.898-.674 1.252-1.012-.401.93-.965 1.636-2.165 2.716-1.67 1.51-5.506 3.436-5.84 3.6 0 0-4.062-2.007-6.597-4.13C.025 18.797 0 14.785 0 14.785V.671h1.541v1.145h2.047V.67h1.534v1.145h2.049V.67h1.536v12.291s-.012.896.446 1.308c.463.419 1.447.791 2.593-.265a3.588 3.588 0 0 1-1.504 2.82v.015c.202-.025 1.693-.248 3.148-1.422-.105.429-.176.957-.868 1.774-.947 1.117-2.102 1.846-2.28 1.955v.005c.288-.107 3.39-1.266 4.716-2.341-.277.69-.823 1.378-1.496 2.15-1.133 1.295-2.99 2.346-3.22 2.474v.004c.265-.095 2.883-1.044 4.437-1.885 1.637-.895 1.764-1.165 1.93-1.312-.35.803-.888 1.777-1.55 2.44-1.394 1.387-4.527 2.93-4.817 3.073v.003c.334-.091 4.149-1.176 6.753-3.109zm-2.001-8.878s.242 2.438-1.604 3.646c.241-.898.2-1.745.2-1.745V1.845h1.404v9.927zm1.793 1.159s-.008 2.385-1.821 3.874c.46-1.143.416-2.106.416-2.106V.674h1.405v12.257zm1.79.793s.023 3.215-1.962 4.508c.44-.858.559-2.73.559-2.73V1.845h1.404v11.88zm1.797.975s.088 2.773-2.119 4.932c.634-1.463.71-2.908.71-2.908V.674h1.41V14.7zm-7.17-3.8s.175 1.675-1.452 3.097c.048-.345.048-1.254.048-1.254V.674h1.404V10.9z"/>
    </g>
</svg>
